<svg width="12274" height="1548" viewBox="0 0 12274 1548" fill="none" xmlns="http://www.w3.org/2000/svg">
<g clip-path="url(#clip0_201_19)">
<path fill-rule="evenodd" clip-rule="evenodd" d="M2049.55 304.608C2090.18 298.835 2131.16 295.883 2172.2 295.774C2213.24 295.729 2254.24 298.682 2294.85 304.608L2558.01 850.195L2828.97 304.608C2865.26 298.424 2902.03 295.467 2938.84 295.774C2977.77 295.645 3016.64 298.599 3055.1 304.608L3108.86 1306.4C3070.87 1312.13 3032.52 1315.08 2994.1 1315.24C2958.36 1315.28 2922.68 1312.32 2887.43 1306.4L2858.76 582.054L2626.15 1082.72C2611.3 1084.69 2595.89 1086.38 2580 1087.89C2564.12 1089.39 2548.14 1090.05 2532.16 1090.05C2518.35 1090.05 2504.63 1090.05 2490.81 1088.64C2476.36 1087.52 2461.98 1085.54 2447.76 1082.72L2231.13 571.716L2208.66 1306.4C2176.05 1312.18 2143 1315.14 2109.89 1315.24C2074.68 1315.15 2039.54 1312.2 2004.81 1306.4L2049.36 304.608H2049.55ZM8980.99 696.153H8885.41L8878.08 666.829L9153.08 315.323H9186.82V537.411H9364.74C9367.51 550.5 9369.49 563.745 9370.66 577.073C9371.6 588.821 9372.16 601.133 9372.16 613.821C9372.16 626.509 9371.6 640.795 9370.66 653.577C9369.5 667.871 9367.53 682.086 9364.74 696.153H9186.82V994.651C9186.24 1019.39 9188.74 1044.11 9194.25 1068.24C9197.9 1084.35 9205.16 1099.43 9215.49 1112.32C9224.58 1122.94 9236.62 1130.62 9250.07 1134.41C9265.9 1138.54 9282.22 1140.5 9298.57 1140.24C9313.12 1140.25 9327.65 1139.03 9341.99 1136.57L9379.59 1129.99C9386.49 1148.78 9391.41 1168.25 9394.25 1188.07C9397.04 1205.83 9398.51 1223.77 9398.67 1241.74C9398.67 1252.45 9398.67 1261.57 9397.91 1268.9C9397.16 1276.23 9396.69 1283.38 9395.75 1290.24C9350 1301.11 9303.12 1306.53 9256.09 1306.4C9166.87 1306.4 9098.73 1285.57 9051.67 1243.9C9004.61 1202.23 8981.09 1134.35 8981.09 1040.23V696.153H8980.99ZM8472.44 966.737C8417.55 951.011 8374.66 927.733 8343.77 896.906C8312.88 866.079 8297.44 819.744 8297.44 757.901C8297.44 683.465 8324.16 625.162 8377.6 582.994C8431.05 540.826 8503.83 519.741 8595.93 519.741C8633.76 519.764 8671.51 523.225 8708.72 530.08C8747.08 537.283 8784.8 547.593 8821.5 560.907C8819.27 587.802 8814.36 614.406 8806.84 640.325C8799.84 665.224 8790.39 689.371 8778.64 712.412C8753.29 701.965 8727.22 693.359 8700.63 686.66C8671.33 679.214 8641.2 675.519 8610.97 675.664C8577.7 675.664 8551.67 680.739 8533.06 691.077C8524.11 695.689 8516.68 702.793 8511.68 711.532C8506.67 720.271 8504.31 730.271 8504.86 740.326C8504.86 761.88 8511.47 777.074 8524.69 785.909C8542.29 796.725 8561.25 805.133 8581.08 810.909L8664.92 835.909C8691.06 842.962 8716.44 852.596 8740.67 864.669C8761.77 875.241 8780.86 889.428 8797.06 906.587C8813.49 924.381 8826 945.415 8833.81 968.335C8843.32 997.245 8847.81 1027.57 8847.06 1058C8847.35 1093.13 8839.57 1127.86 8824.32 1159.5C8808.79 1191.29 8786.3 1219.17 8758.53 1241.08C8727.05 1265.43 8691.42 1283.87 8653.36 1295.5C8608.12 1309.33 8561 1316.02 8513.7 1315.33C8490.14 1315.33 8468.58 1314.61 8449.03 1313.17C8430.11 1311.75 8411.29 1309.27 8392.64 1305.74C8374.5 1302.36 8356.65 1298.13 8338.98 1293.24C8321.31 1288.36 8302.23 1281.97 8281.65 1274.45C8283.74 1247.34 8288.43 1220.49 8295.65 1194.28C8302.86 1167.32 8312.29 1141.01 8323.85 1115.61C8353.68 1127.59 8384.41 1137.17 8415.76 1144.28C8445.47 1150.69 8475.79 1153.84 8506.18 1153.68C8521.19 1153.57 8536.18 1152.35 8551.01 1150.01C8566.51 1147.76 8581.61 1143.3 8595.84 1136.76C8608.95 1130.86 8620.71 1122.35 8630.43 1111.76C8640.05 1100.55 8645.02 1086.1 8644.34 1071.34C8644.34 1047.85 8637.29 1030.93 8623 1020.59C8604.75 1008.42 8584.66 999.249 8563.51 993.429L8472.34 966.925L8472.44 966.737ZM7838.41 1315.24C7783.23 1316.5 7728.39 1306.23 7677.41 1285.07C7633.66 1266.31 7594.88 1237.6 7564.16 1201.23C7533.56 1164.22 7510.59 1121.51 7496.58 1075.57C7481 1025.11 7473.29 972.553 7473.74 919.745C7473.36 866.448 7481.06 813.4 7496.58 762.412C7510.38 715.904 7533.36 672.633 7564.16 635.156C7594.96 598.692 7633.7 569.759 7677.41 550.569C7728.27 528.955 7783.16 518.445 7838.41 519.741C7893.9 518.526 7949.03 529.063 8000.16 550.663C8044.29 569.807 8083.5 598.731 8114.82 635.25C8146.04 672.465 8169.09 715.819 8182.49 762.507C8197.53 813.583 8204.97 866.595 8204.58 919.839C8205.04 972.593 8197.59 1025.12 8182.49 1075.67C8168.86 1121.78 8145.82 1164.57 8114.82 1201.33C8083.59 1237.75 8044.34 1266.45 8000.16 1285.16C7948.9 1306.24 7893.82 1316.48 7838.41 1315.24V1315.24ZM7838.41 1156.4C7893.3 1156.4 7932.77 1136.07 7956.83 1095.4C7980.89 1054.74 7992.89 996.186 7992.83 919.745C7992.83 843.24 7980.83 784.656 7956.83 743.991C7932.83 703.327 7893.36 682.995 7838.41 682.995C7784.52 682.995 7745.58 703.327 7721.58 743.991C7697.59 784.656 7685.56 843.24 7685.49 919.745C7685.49 996.124 7697.52 1054.68 7721.58 1095.4C7745.65 1136.13 7784.59 1156.34 7838.41 1156.02V1156.4ZM6310.2 537.411C6323.8 534.486 6337.54 532.29 6351.37 530.832C6366.51 529.257 6381.73 528.504 6396.95 528.576C6411.67 528.473 6426.39 529.226 6441.03 530.832C6453.81 532.242 6467.06 534.497 6480.79 537.411C6484.42 544.129 6487.14 551.305 6488.87 558.745C6491.31 568.144 6493.57 577.543 6495.45 588.163C6497.33 598.783 6499.11 608.464 6500.62 618.238C6502.12 628.013 6503.34 636.378 6504.28 643.239C6512.92 627.441 6523.29 612.656 6535.2 599.159C6548.53 583.936 6563.87 570.594 6580.79 559.497C6599.25 547.458 6619.27 537.974 6640.28 531.302C6664.26 523.599 6689.34 519.854 6714.53 520.211C6833.14 520.211 6909.11 565.325 6942.44 655.551C6962.95 618.277 6991.3 585.891 7025.53 560.625C7061.37 533.683 7106.73 520.211 7161.62 520.211C7247.77 520.211 7311.21 543.99 7351.94 591.547C7392.67 639.103 7413.03 713.352 7413.03 814.293V1298.04C7343.92 1309.82 7273.31 1309.82 7204.19 1298.04V868.241C7204.19 815.358 7197.58 774.631 7184.36 746.059C7171.14 717.487 7144.42 703.264 7104.19 703.389C7087.5 703.391 7070.91 705.861 7054.94 710.72C7038.21 715.949 7023.06 725.287 7010.86 737.882C6995.99 753.834 6984.94 772.955 6978.53 793.804C6969.3 824.022 6965.08 855.548 6966.03 887.132V1297.38C6896.92 1309.16 6826.31 1309.16 6757.2 1297.38V868.241C6757.2 815.358 6750.59 774.631 6737.37 746.059C6724.15 717.487 6697.42 703.264 6657.2 703.389C6640.27 703.435 6623.43 705.904 6607.2 710.72C6589.98 715.893 6574.48 725.638 6562.36 738.916C6547.46 756.132 6536.67 776.506 6530.79 798.503C6522.03 831.056 6518.07 864.713 6519.04 898.41V1296.91C6449.92 1308.69 6379.32 1308.69 6310.2 1296.91V537.411V537.411ZM5753.62 537.411C5768.28 534.497 5782.28 532.242 5795.44 530.832C5809.86 529.266 5824.36 528.513 5838.86 528.576C5853.35 528.595 5867.83 529.568 5882.19 531.49C5896.48 533.463 5910.39 535.907 5924.11 538.914C5927.79 545.58 5930.51 552.731 5932.19 560.155C5934.63 569.554 5936.89 578.952 5938.86 589.573C5940.84 600.193 5942.53 610.156 5944.03 620.494C5945.54 630.833 5946.66 639.291 5947.7 646.246C5969.88 615.182 5996.62 587.647 6027.02 564.573C6061.1 539.711 6102.54 527.033 6144.69 528.576C6154.09 528.576 6165.75 529.046 6178.53 530.08C6188.06 530.468 6197.52 531.95 6206.72 534.497C6208.89 545.642 6210.37 556.911 6211.14 568.238C6212.17 581.02 6212.64 594.272 6212.64 607.994C6212.64 624.661 6211.89 642.8 6210.39 662.412C6209.07 681.195 6206.37 699.855 6202.31 718.239C6190.42 716.189 6178.37 715.214 6166.31 715.326H6142.06C6123.15 715.467 6104.29 717.197 6085.67 720.495C6064.06 724.389 6043.81 733.739 6026.83 747.657C6006.1 765.32 5990.19 787.957 5980.59 813.447C5968.06 842.833 5961.8 883.999 5961.8 936.944V1298.69C5944.28 1301.61 5926.61 1303.56 5908.88 1304.52C5891.21 1305.56 5874.11 1306.03 5857.38 1306.03C5840.65 1306.03 5823.83 1305.56 5806.72 1304.52C5788.74 1303.48 5770.83 1301.54 5753.05 1298.69V537.411H5753.62ZM5178.61 981.493C5182.56 1040.27 5203.14 1082.9 5240.36 1109.41C5277.58 1135.91 5326.61 1149.13 5387.45 1149.07C5421.72 1149.04 5455.91 1145.89 5489.61 1139.67C5523.44 1133.6 5556.66 1124.51 5588.86 1112.51C5600.84 1134.92 5610.29 1158.6 5617.06 1183.09C5625.06 1211.86 5629.51 1241.5 5630.31 1271.35C5547.47 1301.81 5459.73 1316.75 5371.47 1315.42C5300.92 1315.42 5240.39 1305.62 5189.89 1286.01C5142.73 1268.8 5100.24 1240.8 5065.83 1204.24C5033.45 1168.52 5009.35 1126.09 4995.25 1079.99C4979.62 1029.03 4971.95 975.96 4972.5 922.658C4972.1 869.311 4980.03 816.227 4996 765.326C5010.48 718.444 5034.23 674.946 5065.83 637.412C5097.32 600.698 5136.45 571.314 5180.49 551.321C5230.82 529.284 5285.35 518.506 5340.27 519.741C5388.74 518.964 5436.81 528.579 5481.25 547.937C5521.28 565.731 5557.09 591.805 5586.32 624.442C5616.02 657.936 5638.42 697.24 5652.11 739.856C5667.04 786.155 5674.46 834.541 5674.11 883.184C5674.11 901.981 5673.35 920.215 5671.94 938.354C5670.53 956.493 5668.75 970.967 5666.78 981.775L5178.61 981.493ZM5477.11 835.909C5475.11 788.854 5462.11 750.852 5438.11 721.905C5414.11 692.957 5380.53 678.515 5337.36 678.577C5288.36 678.577 5251.11 692.299 5225.61 719.743C5200.1 747.187 5184.94 785.909 5180.12 835.909H5477.11ZM4511.31 696.153H4415.36L4407.93 667.299L4682.84 315.792H4716.67V537.881H4894.59C4897.27 550.986 4899.25 564.226 4900.51 577.543C4901.45 589.291 4901.92 601.603 4901.92 614.291C4901.92 626.979 4901.45 641.265 4900.51 654.047C4899.26 668.33 4897.29 682.541 4894.59 696.623H4716.77V995.121C4716.19 1019.86 4718.68 1044.58 4724.19 1068.71C4727.84 1084.82 4735.11 1099.9 4745.43 1112.79C4754.53 1123.41 4766.56 1131.09 4780.02 1134.88C4795.85 1139.01 4812.16 1140.97 4828.52 1140.7C4843.07 1140.72 4857.59 1139.5 4871.94 1137.04L4909.53 1130.46C4916.44 1149.25 4921.35 1168.72 4924.19 1188.54C4926.98 1206.3 4928.46 1224.24 4928.61 1242.21C4928.61 1252.92 4928.61 1262.04 4927.86 1269.37C4927.11 1276.7 4926.64 1283.85 4925.7 1290.71C4879.89 1301.42 4832.98 1306.69 4785.94 1306.4C4696.72 1306.4 4628.58 1285.57 4581.52 1243.9C4534.47 1202.23 4511.06 1134.35 4511.31 1040.23V696.153ZM3959.62 696.153H3863.66L3856.33 666.829L4131.33 315.323H4165.17V537.411H4343.08C4345.78 550.509 4347.73 563.751 4348.91 577.073C4349.94 588.821 4350.41 601.133 4350.41 613.821C4350.41 626.509 4350.41 640.795 4348.91 653.577C4347.74 667.864 4345.8 682.077 4343.08 696.153H4165.17V994.651C4164.56 1019.39 4167.02 1044.11 4172.5 1068.24C4176.18 1084.36 4183.47 1099.43 4193.83 1112.32C4202.87 1122.96 4214.88 1130.65 4228.32 1134.41C4244.18 1138.54 4260.53 1140.5 4276.91 1140.24C4291.43 1140.25 4305.93 1139.02 4320.24 1136.57L4357.84 1129.99C4364.73 1148.8 4369.68 1168.26 4372.59 1188.07C4375.31 1205.84 4376.75 1223.77 4376.92 1241.74C4376.92 1252.45 4376.92 1261.57 4376.26 1268.9C4375.6 1276.23 4375.04 1283.38 4374 1290.24C4328.22 1301.11 4281.3 1306.54 4234.25 1306.4C4145.02 1306.4 4076.88 1285.57 4029.83 1243.9C3982.77 1202.23 3959.24 1134.35 3959.24 1040.23V696.153H3959.62ZM3617.13 949.256C3605.39 947.376 3592.7 945.591 3578.88 944.181C3566.68 942.767 3554.42 942.014 3542.13 941.925C3494.08 941.925 3456.11 950.509 3428.22 967.677C3400.34 984.845 3386.37 1012.54 3386.31 1050.76C3385.02 1071.42 3390.64 1091.92 3402.28 1109.03C3412.44 1122.28 3425.89 1132.65 3441.29 1139.11C3456.73 1145.57 3473.1 1149.57 3489.78 1150.95C3506.98 1152.36 3521.93 1153.11 3534.62 1153.11C3549.38 1153.11 3564.13 1151.88 3578.69 1149.45C3593.45 1147 3606.23 1144.75 3616.95 1142.77V949.256H3617.13ZM3617.13 797.845C3617.97 778.061 3613.94 758.373 3605.39 740.514C3597.96 726.255 3586.78 714.296 3573.06 705.927C3557.43 696.963 3540.18 691.211 3522.3 689.01C3500.13 685.94 3477.77 684.464 3455.39 684.592C3397.67 685.447 3340.5 695.897 3286.21 715.514C3273.58 692.561 3263.25 668.414 3255.38 643.427C3248 617.135 3244.52 589.902 3245.05 562.599C3325.58 535.165 3409.97 520.761 3495.05 519.929C3597.05 519.929 3676.69 544.428 3733.96 593.426C3791.23 642.424 3819.89 720.746 3819.96 828.391V1269.47C3778.87 1281.95 3737.14 1292.24 3694.96 1300.29C3640.22 1310.67 3584.59 1315.62 3528.88 1315.05C3482.71 1315.43 3436.63 1310.99 3391.38 1301.8C3353.03 1294.37 3316.55 1279.38 3284.05 1257.72C3254.59 1237.59 3230.77 1210.25 3214.88 1178.3C3197.67 1141.02 3189.36 1100.26 3190.63 1059.22C3189.18 1017.67 3199.64 976.583 3220.8 940.797C3240.41 909.577 3267.19 883.48 3298.9 864.669C3331.89 845.05 3367.95 831.133 3405.57 823.503C3444.22 815.212 3483.63 811.022 3523.15 811.003C3551.34 811.003 3582.92 812.507 3617.13 815.42V797.845Z" fill="white"/>
<path fill-rule="evenodd" clip-rule="evenodd" d="M1225.63 147.406L1233.81 311.223C1366.61 458.028 1419.15 665.831 1353.36 861.133C1254.68 1152.49 929.202 1306.06 626.38 1203.52C323.558 1100.98 158.144 781.527 256.829 489.984C323.183 293.929 491.793 160.47 687.471 125.131L792.641 0.0361244C608.047 -4.8954 427.803 56.5197 284.623 173.134C141.444 289.749 44.8199 453.833 12.2892 635.605C-20.2415 817.377 13.4773 1004.79 107.325 1163.82C201.174 1322.86 348.931 1442.97 523.778 1502.37C698.624 1561.76 888.972 1556.5 1060.27 1487.54C1231.57 1418.57 1372.47 1290.48 1457.39 1126.51C1542.31 962.53 1565.62 773.542 1523.1 593.845C1480.58 414.147 1375.04 255.651 1225.63 147.124V147.406Z" fill="white"/>
<path fill-rule="evenodd" clip-rule="evenodd" d="M1036.47 630.833L1030.84 401.79L1026.32 270.21L1023.32 156.017C1023.32 156.017 1023.97 100.941 1022 88.0655C1021.68 85.6587 1020.91 83.3324 1019.74 81.2045V80.3586L1019.27 79.7007C1017.23 75.9544 1013.89 73.0813 1009.88 71.618C1005.66 70.1965 1001.07 70.3976 997 72.1819V72.1819L995.59 72.9337C993.534 73.8901 991.659 75.1937 990.045 76.7872C980.647 86.1857 947.658 129.983 947.658 129.983L875.853 218.894L791.359 320.68L647.749 499.253C647.749 499.253 581.959 581.49 596.433 682.713C610.907 783.936 686.189 833.09 744.555 853.015C802.92 872.94 892.676 879.331 965.797 807.808C1038.92 736.285 1036.47 630.833 1036.47 630.833Z" fill="white"/>
<path d="M9849.81 273.06C9869.94 270.185 9889.1 268.269 9907.31 267.311C9925.52 265.394 9945.64 264.436 9967.68 264.436C9986.85 264.436 10005.5 265.394 10023.7 267.311C10041.9 268.269 10062.1 270.185 10084.1 273.06L10407.5 1306.57C10368.2 1312.32 10329.9 1315.2 10292.5 1315.2C10256.1 1315.2 10220.7 1312.32 10186.2 1306.57L10128.7 1099.58H9786.57L9727.63 1306.57C9693.13 1312.32 9660.07 1315.2 9628.45 1315.2C9592.99 1315.2 9558.02 1312.32 9523.52 1306.57L9849.81 273.06ZM10079.8 925.653L9960.5 491.549L9835.44 925.653H10079.8ZM10523.6 273.06C10559.1 267.311 10594 264.436 10628.5 264.436C10663 264.436 10698.5 267.311 10734.9 273.06V1306.57C10698.5 1312.32 10663.5 1315.2 10630 1315.2C10594.5 1315.2 10559.1 1312.32 10523.6 1306.57V273.06Z" fill="white"/>
</g>
<defs>
<clipPath id="clip0_201_19">
<rect width="12273.4" height="1548" fill="white"/>
</clipPath>
</defs>
</svg>
